<svg width="1090" height="469" viewBox="0 0 1090 469" fill="none" xmlns="http://www.w3.org/2000/svg">
<path d="M720.717 365.434C705.413 391.421 679.493 402.098 649.938 397.838C633.126 395.383 617.984 386.345 607.846 372.717C601.82 364.595 597.837 355.147 596.223 345.165C594.772 336.003 595.193 319.981 595.202 310.122L595.25 255.725L595.202 197.023C595.185 186.826 594.739 168.685 596.199 159.268C598.884 142.938 607.821 128.295 621.122 118.449C651.82 96.0688 695.081 102.892 717.441 133.765L718.811 133.122C755.608 89.603 813.256 98.5423 836.103 150.165C835.13 153.47 814.489 168.676 809.972 173.772L808.893 185.98C819.583 181.971 827.758 179.801 838.139 176.27L837.961 182.277C829.112 184.776 803.565 189.756 807.166 203.065C809.088 210.181 815.43 212.856 820.329 217.045C812.9 226.358 802.072 237.333 793.759 246.208L819.388 275.025C837.79 295.775 850.361 309.118 848.601 338.747C846.355 376.679 814.441 401.527 777.279 398.388C752.729 396.315 738.658 384.714 722.794 367.104L720.717 365.434Z" fill="#FEFEFE"></path>
<path d="M720.717 365.434C722.21 353.705 719.582 312.375 722.185 305.217C723.71 320.064 722.794 351.181 722.794 367.104L720.717 365.434Z" fill="#272526"></path>
<path d="M717.441 133.765L718.811 133.122C719.022 137.642 719.266 168.297 718.365 170.579C716.768 168.09 717.425 138.984 717.441 133.765Z" fill="#D2D2D5"></path>
<path d="M444.09 103.423C509.113 95.0236 529.614 148.574 546.467 198.818C549.151 206.807 553.068 215.181 555.525 223.109C567.318 261.046 599.841 317.367 588.057 356.544C583.531 371.519 573.206 384.064 559.378 391.39C543.376 399.971 522.034 401.867 504.739 396.504C485.225 390.454 474.237 378.021 465.042 360.564L463.963 358.952C460.05 358.028 452.114 358.42 447.776 358.483C445.598 362.604 443.521 366.604 441.032 370.583C411.943 417.038 331.79 405.838 321.941 349.914C318.973 333.058 322.144 315.379 327.812 299.334C335.486 277.614 343.931 256.06 352.06 234.487L369.895 186.68C384.738 146.838 396.521 112.102 444.09 103.423ZM456.974 206.781C450.429 226.55 444.161 246.411 438.172 266.356L454.738 266.368L474 266.338L462.753 226.472C461.527 222.152 458.5 210.471 456.974 206.781Z" fill="#FEFEFE"></path>
<path d="M118.426 108.388C124.141 107.413 143.195 108.065 150.001 107.998C189.993 107.403 221.786 106.7 257.588 128.233C350.507 184.119 343.274 335.62 246.97 383.621C235.61 389.283 224.888 392.207 212.484 395.09C240.414 367.435 244.457 340.607 218.439 309.564C213.648 305.024 206.99 300.541 208.487 293.385C216.648 283.335 250.159 291.949 258.512 256.219C251.421 230.297 227.28 247.508 224.047 239.611C212.991 212.609 199.227 194.789 167.818 193.36C152.188 192.649 136.931 198.269 125.497 208.948C111.966 221.438 102.574 243.164 107.401 261.705C108.898 267.455 113.558 276.781 113.314 282.469C109.437 287.148 94.2469 287.317 88.5907 285.646C75.4901 281.777 64.6384 268.879 58.2231 257.475L58.1096 199.934C58.0942 188.34 57.3861 169.323 59.7771 158.515C61.8412 149.538 65.8201 141.113 71.443 133.817C83.9411 117.536 98.6849 111.052 118.426 108.388Z" fill="#FEFEFE"></path>
<path d="M884.611 171.302C898.861 171.51 927.612 172.289 941.181 175.32L945.058 176.355C951.011 176.365 985.901 182.67 988.026 186.65V190.53C1038.75 206.105 1051.1 226.244 989.494 237.798L989.583 312.154C989.591 317.734 989.9 340.574 989.081 344.459C983.079 377.557 956.858 400.604 923.168 399.6C903.533 399.015 888.991 395.897 874.806 381.4C867.036 373.449 861.456 363.623 858.617 352.877C854.57 337.573 855.665 311.375 855.665 294.905C855.608 273.341 855.673 251.775 855.876 230.212C857.028 216.149 856.338 189.081 856.614 173.525C864.579 172.125 872.567 171.713 880.645 171.655L884.611 171.302Z" fill="#FEFEFE"></path>
<path d="M988.026 190.53C1038.75 206.105 1051.1 226.244 989.494 237.798L989.583 312.154C989.591 317.734 989.899 340.574 989.08 344.459C988.504 339.096 988.805 326.344 988.813 320.72L988.861 276.362C988.886 247.976 987.45 218.383 988.026 190.53Z" fill="#B96C4F"></path>
<path d="M842.024 176.144C857.344 159.067 872.422 141.781 887.263 124.291C897.547 112.092 910.24 96.0142 920.84 84.7612C919.356 88.7106 917.288 93.2488 915.414 97.0612C903.484 121.424 893.143 147.645 880.645 171.655C872.567 171.712 864.579 172.124 856.614 173.525C856.339 189.081 857.028 216.149 855.876 230.212C842.705 225.39 832.957 224.283 820.329 217.045C815.43 212.856 809.088 210.181 807.166 203.064C803.565 189.756 829.112 184.776 837.961 182.277C842.494 181.073 853.411 180.515 855.584 178.787C855.722 175.928 856.112 176.674 854.652 174.709C852.162 173.823 845.479 175.606 842.024 176.144Z" fill="#B96C4F"></path>
<path d="M884.611 171.302C898.407 142.93 917.985 100.033 929.956 71C930.127 93.5457 936.404 124.761 938.302 147.877C938.991 156.326 941.311 166.939 941.181 175.32C927.612 172.289 898.861 171.51 884.611 171.302Z" fill="#B96C4F"></path>
<path d="M932.495 75.2827C954.993 113.101 979.567 154.321 1003.17 191.391C999.397 190.002 991.684 186.865 988.026 186.65C985.901 182.67 951.011 176.365 945.058 176.355C940.297 143.106 937.71 108.364 932.495 75.2827Z" fill="#B96C4F"></path>
<path d="M939.259 81.2671C943.209 82.842 1022.64 179.857 1030.84 189.69C1031.68 193.996 1032.24 200.429 1032.78 204.928C1030.46 204.709 1011.15 194.773 1006.74 192.775C992.649 166.276 971.716 136.962 956.704 110.448C952.3 102.662 942.357 88.5942 939.259 81.2671Z" fill="#B96C4F"></path>
<path d="M836.103 150.165C842.924 145.243 852.592 136.612 859.21 131.018L899.348 97.1344C904.4 92.8663 916.607 81.9498 921.554 79.1479C921.586 80.4731 846.33 164.837 838.139 176.27C827.758 179.801 819.583 181.971 808.893 185.98L809.972 173.772C814.489 168.676 835.13 153.47 836.103 150.165Z" fill="#B96C4F"></path>
</svg>