<svg width="1090" height="469" viewBox="0 0 1090 469" fill="none" xmlns="http://www.w3.org/2000/svg">
<path d="M720.717 364.434C705.413 390.421 679.493 401.098 649.938 396.838C633.126 394.383 617.984 385.345 607.846 371.717C601.82 363.595 597.837 354.147 596.223 344.165C594.772 335.003 595.193 318.981 595.202 309.122L595.25 254.725L595.202 196.023C595.185 185.826 594.739 167.685 596.199 158.268C598.884 141.938 607.821 127.295 621.122 117.449C651.82 95.0688 695.081 101.892 717.441 132.765L718.811 132.122C755.608 88.603 813.256 97.5423 836.103 149.165C835.13 152.47 814.489 167.676 809.972 172.772L808.893 184.98C819.583 180.971 827.758 178.801 838.139 175.27L837.961 181.277C829.112 183.776 803.565 188.756 807.166 202.065C809.088 209.181 815.43 211.856 820.329 216.045C812.9 225.358 802.072 236.333 793.759 245.208L819.388 274.025C837.79 294.775 850.361 308.118 848.601 337.747C846.355 375.679 814.441 400.527 777.279 397.388C752.729 395.315 738.658 383.714 722.794 366.104L720.717 364.434Z" fill="#010000"></path>
<path d="M720.717 364.434C722.21 352.705 719.582 311.375 722.185 304.217C723.71 319.064 722.794 350.181 722.794 366.104L720.717 364.434Z" fill="#FEFEFE"></path>
<path d="M717.441 132.765L718.811 132.122C719.022 136.642 719.266 167.297 718.365 169.579C716.768 167.09 717.425 137.984 717.441 132.765Z" fill="#FEFEFE"></path>
<path d="M444.089 102.423C509.113 94.0229 529.613 147.573 546.466 197.817C549.151 205.806 553.068 214.18 555.526 222.108C567.318 260.045 599.84 316.367 588.056 355.544C583.531 370.518 573.206 383.063 559.378 390.39C543.377 398.97 522.034 400.866 504.74 395.504C485.226 389.453 474.237 377.02 465.042 359.563L463.963 357.951C460.05 357.027 452.113 357.42 447.776 357.482C445.598 361.604 443.522 365.603 441.033 369.582C411.943 416.038 331.791 404.838 321.942 348.913C318.974 332.057 322.144 314.378 327.811 298.334C335.485 276.614 343.931 255.06 352.059 233.486L369.894 185.68C384.738 145.838 396.521 111.101 444.089 102.423ZM456.974 205.78C450.429 225.55 444.162 245.411 438.172 265.355L454.738 265.367L474 265.338L462.753 225.472C461.528 221.151 458.5 209.47 456.974 205.78Z" fill="#010000"></path>
<path d="M118.426 107.388C124.141 106.413 143.195 107.065 150.001 106.998C189.993 106.403 221.786 105.7 257.588 127.233C350.507 183.119 343.274 334.62 246.97 382.621C235.61 388.283 224.888 391.207 212.484 394.09C240.414 366.435 244.457 339.607 218.439 308.564C213.648 304.024 206.99 299.541 208.487 292.385C216.648 282.335 250.159 290.949 258.512 255.219C251.421 229.297 227.28 246.508 224.047 238.611C212.991 211.609 199.227 193.789 167.818 192.36C152.188 191.649 136.931 197.269 125.497 207.948C111.966 220.438 102.574 242.164 107.401 260.705C108.898 266.455 113.558 275.781 113.314 281.469C109.437 286.148 94.2469 286.317 88.5907 284.646C75.4901 280.777 64.6384 267.879 58.2231 256.475L58.1096 198.934C58.0942 187.34 57.3861 168.323 59.7771 157.515C61.8412 148.538 65.8201 140.113 71.443 132.817C83.9411 116.536 98.6849 110.052 118.426 107.388Z" fill="#010000"></path>
<path d="M884.611 170.302C898.861 170.51 927.612 171.289 941.181 174.32L945.058 175.355C951.011 175.365 985.901 181.67 988.026 185.65V189.53C1038.75 205.105 1051.1 225.244 989.494 236.798L989.583 311.154C989.591 316.734 989.9 339.574 989.081 343.459C983.079 376.557 956.858 399.604 923.168 398.6C903.533 398.015 888.991 394.897 874.806 380.4C867.036 372.449 861.456 362.623 858.617 351.877C854.57 336.573 855.665 310.375 855.665 293.905C855.608 272.341 855.673 250.775 855.876 229.212C857.028 215.149 856.338 188.081 856.614 172.525C864.579 171.125 872.567 170.713 880.645 170.655L884.611 170.302Z" fill="#010000"></path>
<path d="M988.026 189.53C1038.75 205.105 1051.1 225.244 989.494 236.798L989.583 311.154C989.591 316.734 989.899 339.574 989.08 343.459C988.504 338.096 988.805 325.344 988.813 319.72L988.861 275.362C988.886 246.976 987.45 217.383 988.026 189.53Z" fill="#98553C"></path>
<path d="M842.024 175.144C857.344 158.067 872.422 140.781 887.263 123.291C897.547 111.092 910.24 95.0142 920.84 83.7612C919.356 87.7106 917.288 92.2488 915.414 96.0612C903.484 120.424 893.143 146.645 880.645 170.655C872.567 170.712 864.579 171.124 856.614 172.525C856.339 188.081 857.028 215.149 855.876 229.212C842.705 224.39 832.957 223.283 820.329 216.045C815.43 211.856 809.088 209.181 807.166 202.064C803.565 188.756 829.112 183.776 837.961 181.277C842.494 180.073 853.411 179.515 855.584 177.787C855.722 174.928 856.112 175.674 854.652 173.709C852.162 172.823 845.479 174.606 842.024 175.144Z" fill="#98553C"></path>
<path d="M884.611 170.302C898.407 141.93 917.985 99.0327 929.956 70C930.127 92.5457 936.404 123.761 938.302 146.877C938.991 155.326 941.311 165.939 941.181 174.32C927.612 171.289 898.861 170.51 884.611 170.302Z" fill="#98553C"></path>
<path d="M932.495 74.2827C954.993 112.101 979.567 153.321 1003.17 190.391C999.397 189.002 991.684 185.865 988.026 185.65C985.901 181.67 951.011 175.365 945.058 175.355C940.297 142.106 937.71 107.364 932.495 74.2827Z" fill="#98553C"></path>
<path d="M939.259 80.2671C943.209 81.842 1022.64 178.857 1030.84 188.69C1031.68 192.996 1032.24 199.429 1032.78 203.928C1030.46 203.709 1011.15 193.773 1006.74 191.775C992.649 165.276 971.716 135.962 956.704 109.448C952.3 101.662 942.357 87.5942 939.259 80.2671Z" fill="#98553C"></path>
<path d="M836.103 149.165C842.924 144.243 852.592 135.612 859.21 130.018L899.348 96.1344C904.4 91.8663 916.607 80.9498 921.554 78.1479C921.586 79.4731 846.33 163.837 838.139 175.27C827.758 178.801 819.583 180.971 808.893 184.98L809.972 172.772C814.489 167.676 835.13 152.47 836.103 149.165Z" fill="#98553C"></path>
</svg>