<svg width="1090" height="469" viewBox="0 0 1090 469" fill="none" xmlns="http://www.w3.org/2000/svg">
<path fill-rule="evenodd" clip-rule="evenodd" d="M621.122 116.169C651.579 93.9639 694.405 100.507 716.913 130.766L717.441 131.486C717.425 136.706 716.767 165.81 718.365 168.3C719.209 166.16 719.048 139.084 718.851 131.983L718.811 130.842C755.608 87.3232 813.256 96.2631 836.103 147.886C835.129 151.191 814.489 166.397 809.971 171.493L808.893 183.701C819.583 179.692 827.758 177.521 838.139 173.991L837.961 179.997C829.112 182.496 803.565 187.477 807.166 200.785C809.088 207.902 815.43 210.577 820.329 214.766C812.9 224.079 802.072 235.054 793.759 243.929L819.387 272.745C837.79 293.495 850.361 306.839 848.601 336.467C846.355 374.398 814.44 399.248 777.279 396.109C753.496 394.1 739.547 383.151 724.276 366.458L722.794 364.825C722.794 348.901 723.71 317.785 722.185 302.938C719.622 309.984 722.128 350.142 720.784 362.583L720.717 363.155C705.413 389.141 679.492 399.818 649.938 395.559C633.125 393.103 617.983 384.066 607.845 370.438C601.819 362.316 597.837 352.867 596.223 342.886C594.771 333.724 595.194 317.702 595.202 307.842L595.251 253.446L595.202 194.743C595.186 184.546 594.739 166.405 596.199 156.988C598.883 140.658 607.821 126.015 621.122 116.169Z" fill="#873924"></path>
<path fill-rule="evenodd" clip-rule="evenodd" d="M444.09 102.423C509.113 94.0231 529.613 147.573 546.467 197.818C549.151 205.806 553.069 214.181 555.526 222.109C567.319 260.046 599.841 316.367 588.056 355.544C583.531 370.519 573.207 383.064 559.379 390.39C543.377 398.971 522.034 400.866 504.74 395.504C485.226 389.454 474.237 377.021 465.042 359.564L463.964 357.951C460.05 357.028 452.114 357.42 447.776 357.483C445.598 361.604 443.522 365.604 441.033 369.582C411.944 416.038 331.791 404.838 321.942 348.913C318.974 332.057 322.144 314.378 327.811 298.334C335.485 276.614 343.931 255.06 352.059 233.487L369.894 185.68C384.738 145.838 396.521 111.101 444.09 102.423ZM456.974 205.781C450.429 225.55 444.161 245.411 438.172 265.356L454.738 265.367L474.001 265.337L462.754 225.472C461.528 221.152 458.501 209.471 456.974 205.781Z" fill="#873924"></path>
<path d="M118.426 107.388C124.141 106.413 143.195 107.065 150.001 106.998C189.993 106.403 221.786 105.7 257.588 127.233C350.507 183.119 343.274 334.62 246.97 382.621C235.61 388.283 224.888 391.207 212.484 394.09C240.414 366.435 244.457 339.607 218.439 308.564C213.648 304.024 206.99 299.541 208.487 292.385C216.648 282.335 250.159 290.949 258.512 255.219C251.421 229.297 227.28 246.508 224.047 238.611C212.991 211.609 199.227 193.789 167.818 192.36C152.188 191.649 136.931 197.269 125.497 207.948C111.966 220.438 102.574 242.164 107.401 260.705C108.898 266.455 113.558 275.781 113.314 281.469C109.437 286.148 94.2469 286.317 88.5907 284.646C75.4901 280.777 64.6384 267.879 58.2231 256.475L58.1096 198.934C58.0942 187.34 57.3861 168.323 59.7771 157.515C61.8412 148.538 65.8201 140.113 71.443 132.817C83.9411 116.536 98.6849 110.052 118.426 107.388Z" fill="#873924"></path>
<path d="M884.611 170.302C898.861 170.51 927.612 171.289 941.181 174.32L945.058 175.355C951.011 175.365 985.901 181.67 988.026 185.65V189.53C1038.75 205.105 1051.1 225.244 989.494 236.798L989.583 311.154C989.591 316.734 989.9 339.574 989.081 343.459C983.079 376.557 956.858 399.604 923.168 398.6C903.533 398.015 888.991 394.897 874.806 380.4C867.036 372.449 861.456 362.623 858.617 351.877C854.57 336.573 855.665 310.375 855.665 293.905C855.608 272.341 855.673 250.775 855.876 229.212C857.028 215.149 856.338 188.081 856.614 172.525C864.579 171.125 872.567 170.713 880.645 170.655L884.611 170.302Z" fill="#873924"></path>
<path d="M988.026 189.53C1038.75 205.105 1051.1 225.244 989.494 236.798C989 216 989 213.5 988.026 189.53Z" fill="#DEAE62"></path>
<path d="M842.024 175.144C857.344 158.067 872.422 140.781 887.263 123.291C897.547 111.092 910.24 95.0142 920.84 83.7612C919.356 87.7106 917.288 92.2488 915.414 96.0612C903.484 120.424 893.143 146.645 880.645 170.655C872.567 170.712 864.579 171.124 856.614 172.525C856.339 188.081 857.028 215.149 855.876 229.212C842.705 224.39 832.957 223.283 820.329 216.045C815.43 211.856 809.088 209.181 807.166 202.064C803.565 188.756 829.112 183.776 837.961 181.277C842.494 180.073 853.411 179.515 855.584 177.787C855.722 174.928 856.112 175.674 854.652 173.709C852.162 172.823 845.479 174.606 842.024 175.144Z" fill="#DEAE62"></path>
<path d="M884.611 170.302C898.407 141.93 917.985 99.0327 929.956 70C930.127 92.5457 936.404 123.761 938.302 146.877C938.991 155.326 941.311 165.939 941.181 174.32C927.612 171.289 898.861 170.51 884.611 170.302Z" fill="#DEAE62"></path>
<path d="M932.495 74.2827C954.993 112.101 979.567 153.321 1003.17 190.391C999.397 189.002 991.684 185.865 988.026 185.65C985.901 181.67 951.011 175.365 945.058 175.355C940.297 142.106 937.71 107.364 932.495 74.2827Z" fill="#DEAE62"></path>
<path d="M939.259 80.2671C943.209 81.842 1022.64 178.857 1030.84 188.69C1031.68 192.996 1032.24 199.429 1032.78 203.928C1030.46 203.709 1011.15 193.773 1006.74 191.775C992.649 165.276 971.716 135.962 956.704 109.448C952.3 101.662 942.357 87.5942 939.259 80.2671Z" fill="#DEAE62"></path>
<path d="M836.103 149.165C842.924 144.243 852.592 135.612 859.21 130.018L899.348 96.1344C904.4 91.8663 916.607 80.9498 921.554 78.1479C921.586 79.4731 846.33 163.837 838.139 175.27C827.758 178.801 819.583 180.971 808.893 184.98L809.972 172.772C814.489 167.676 835.13 152.47 836.103 149.165Z" fill="#DEAE62"></path>
</svg>